# xmcd
#
# Track frame offsets:
#	150
#	9578
#	19927
#	33140
#	46511
#	57938
#	69859
#	84061
#	94421
#	106762
#
# Disc length: 1581 seconds
#
# Revision: 1
# Processed by: cddbd v1.5.1PL0 Copyright (c) Steve Scherf et al.
# Submitted via: audiograbber 1.83.01
#
DISCID=65062b0a
DTITLE=Porter Wagoner and Dolly Parton - Two Of A Kind
DYEAR=1900
DGENRE=
TTITLE0=The Pain of Loving You
TTITLE1=Possum Holler
TTITLE2=Is It Real
TTITLE3=The Flame
TTITLE4=The Fighting Kind
TTITLE5=Two of a Kind
TTITLE6=All I Need Is You
TTITLE7=Curse of the Wild Weed Flower
TTITLE8=Today, Tomorrow and Forever
TTITLE9=There'll Be Love
EXTD=
EXTT0=
EXTT1=
EXTT2=
EXTT3=
EXTT4=
EXTT5=
EXTT6=
EXTT7=
EXTT8=
EXTT9=
PLAYORDER=
